<svg width="48" height="48" viewBox="0 0 48 48" fill="none" xmlns="http://www.w3.org/2000/svg">
<path d="M44 33.84V39.84C44.0023 40.397 43.8882 40.9483 43.665 41.4586C43.4419 41.969 43.1146 42.4271 42.7042 42.8037C42.2937 43.1802 41.8092 43.4669 41.2815 43.6454C40.7539 43.8238 40.1947 43.8901 39.64 43.84C33.4857 43.1712 27.574 41.0682 22.38 37.7C17.5477 34.6293 13.4507 30.5323 10.38 25.7C6.99996 20.4824 4.89649 14.5419 4.24 8.35995C4.19002 7.80688 4.25575 7.24947 4.433 6.7232C4.61026 6.19693 4.89515 5.71333 5.26954 5.30319C5.64393 4.89306 6.09961 4.56537 6.60759 4.34099C7.11556 4.11662 7.66468 4.00047 8.22 3.99995H14.22C15.1906 3.9904 16.1316 4.33411 16.8675 4.96702C17.6035 5.59992 18.0842 6.47884 18.22 7.43995C18.4732 9.36008 18.9429 11.2454 19.62 13.0599C19.8891 13.7758 19.9473 14.5538 19.7878 15.3017C19.6283 16.0496 19.2577 16.7362 18.72 17.28L16.18 19.8199C19.0271 24.827 23.1729 28.9728 28.18 31.82L30.72 29.28C31.2638 28.7422 31.9503 28.3716 32.6982 28.2121C33.4462 28.0526 34.2242 28.1109 34.94 28.3799C36.7545 29.0571 38.6399 29.5267 40.56 29.78C41.5315 29.917 42.4188 30.4064 43.0531 31.1549C43.6873 31.9035 44.0243 32.8591 44 33.84Z" stroke="#1E1E1E" stroke-width="4" stroke-linecap="round" stroke-linejoin="round"/>
</svg>
